<?xml version="1.0" encoding="UTF-8"?>
<svg version="1.1" xmlns="http://www.w3.org/2000/svg" width="1024" height="1024">
<path d="M0 0 C337.92 0 675.84 0 1024 0 C1024 337.92 1024 675.84 1024 1024 C686.08 1024 348.16 1024 0 1024 C0 686.08 0 348.16 0 0 Z " fill="#4E6012" transform="translate(0,0)"/>
<path d="M0 0 C0.64952637 0.16097168 1.29905273 0.32194336 1.96826172 0.48779297 C18.71405061 4.81881564 34.28426692 12.51149823 48 23 C48.89074219 23.66902344 49.78148437 24.33804688 50.69921875 25.02734375 C65.47406878 36.45352945 76.55514419 50.98626795 86.2043457 66.85571289 C89.35080216 72.02081645 92.68789127 77.02407371 96.125 82 C103.24010498 92.30972866 110.18178704 102.73125125 117.11474609 113.1640625 C119.86398217 117.29966548 122.61940558 121.43113222 125.375 125.5625 C126.34899536 127.02341282 127.32295478 128.48434959 128.296875 129.9453125 C128.75513672 130.63270508 129.21339844 131.32009766 129.68554688 132.02832031 C130.89973958 133.84960938 132.11393229 135.67089844 133.328125 137.4921875 C133.70477295 138.05711914 134.0814209 138.62205078 134.46948242 139.20410156 C135.24844085 140.37262149 136.02724617 141.54124348 136.8059082 142.70996094 C139.54266344 146.81694904 142.28403127 150.92082605 145.02734375 155.0234375 C157.39332069 173.52517442 169.63017215 192.1076644 181.6875 210.8125 C187.38933475 219.65545225 193.23926717 228.39892595 199.09033203 237.14355469 C202.58963218 242.37774181 206.07995978 247.61791596 209.57174683 252.8571167 C212.15165555 256.72788935 214.73212143 260.59829056 217.3125 264.46875 C218.41927319 266.12890468 219.526044 267.78906094 220.6328125 269.44921875 C221.18743164 270.28114746 221.74205078 271.11307617 222.31347656 271.97021484 C275.59667969 351.89501953 275.59667969 351.89501953 276.77711487 353.66567993 C277.85879895 355.2881987 278.94050741 356.91070122 280.0222168 358.53320312 C281.32070746 360.48101926 282.61905204 362.42893279 283.91723633 364.37695312 C286.54165028 368.31481082 289.16724854 372.25182731 291.80078125 376.18359375 C297.49442348 384.6888978 303.07787376 393.26134802 308.62207031 401.86474609 C310.40135358 404.62194161 312.1885835 407.37393898 313.97583008 410.12597656 C315.33253621 412.21840151 316.68428879 414.31395788 318.03515625 416.41015625 C320.1947247 419.76121074 322.37412392 423.0987261 324.55859375 426.43359375 C344.30477423 456.74277866 352.93262018 487.62304517 345.40283203 523.7253418 C338.551618 553.33188088 320.2725428 580.57428375 294.40087891 596.80859375 C274.2347438 609.0669771 253.20963224 615.62079642 229.625 615.4375 C228.95256256 615.43512329 228.28012512 615.43274658 227.58731079 615.43029785 C216.91998677 615.37147506 207.11538323 614.45549143 197 611 C196.09507812 610.69964844 195.19015625 610.39929688 194.2578125 610.08984375 C191.77016004 609.17187615 189.40081606 608.12514734 187 607 C185.97132813 606.54238281 184.94265625 606.08476563 183.8828125 605.61328125 C168.41245289 598.36922397 155.02597079 588.05477058 143 576 C142.12988281 575.14148438 141.25976562 574.28296875 140.36328125 573.3984375 C133.55115595 566.31896035 128.44824895 558.37098796 123.28759766 550.06640625 C121.43080666 547.08652778 119.52819858 544.1379797 117.625 541.1875 C117.27099121 540.63586182 116.91698242 540.08422363 116.55224609 539.51586914 C114.34928955 536.08361443 112.13057753 532.66199579 109.90234375 529.24609375 C104.87265936 521.53514925 99.8528822 513.82379059 95 506 C87.58845841 494.05859225 79.89942236 482.29114322 72.0625 470.625 C67.2576237 463.47239946 62.65338547 456.19543542 58.0402832 448.91821289 C53.78531915 442.21319146 49.44724734 435.57936387 45 429 C39.45741601 420.78404952 34.03853663 412.50706447 28.75 404.125 C21.70801757 392.9794163 14.38809206 382.02662517 7.05712891 371.07006836 C0.83447757 361.76773718 -5.31407624 352.42203597 -11.390625 343.0234375 C-13.60538157 339.59932825 -15.85454279 336.20002216 -18.125 332.8125 C-25.32716926 322.05444801 -32.29372249 311.14502378 -39.1875 300.1875 C-43.02816868 294.08396073 -46.93374235 288.03747536 -50.9609375 282.0546875 C-53.8852321 277.6738477 -56.7371768 273.2472705 -59.59326172 268.82177734 C-62.58306241 264.1893629 -65.5840519 259.56450509 -68.59423828 254.9453125 C-74.87377758 245.30757643 -81.09098214 235.63132952 -87.26831055 225.92773438 C-91.15761997 219.83068307 -95.12189038 213.79063508 -99.14526367 207.78125 C-101.63628098 204.04587167 -104.07254473 200.27685639 -106.5 196.5 C-109.63184934 191.64261383 -112.78182583 186.80088278 -116 182 C-130.91435912 159.72052526 -130.91435912 159.72052526 -137 149 C-137.42667969 148.27683594 -137.85335938 147.55367187 -138.29296875 146.80859375 C-141.25328245 141.42537714 -143.08069437 135.88410528 -144.75 130 C-144.96084229 129.26458984 -145.17168457 128.52917969 -145.38891602 127.77148438 C-152.08986407 102.91286283 -149.31259563 76.29054157 -136.52734375 54.05078125 C-124.95658487 34.95469634 -108.64588083 21.29674972 -89 11 C-88.40848145 10.68788574 -87.81696289 10.37577148 -87.20751953 10.05419922 C-60.86657712 -3.62076436 -28.80545388 -7.18175094 0 0 Z " fill="#FCF4EA" transform="translate(548,173)"/>
<path d="M0 0 C4.22295097 3.75649835 8.38354971 7.57314444 12.27734375 11.671875 C13.13005859 12.54972656 13.13005859 12.54972656 14 13.4453125 C23.63864216 23.75463553 30.95739731 35.62453801 36.27734375 48.671875 C36.6434375 49.53683594 37.00953125 50.40179687 37.38671875 51.29296875 C42.82407092 65.03273943 44.95944097 79.16231232 44.79882812 93.84912109 C44.77733696 96.17260955 44.7988104 98.49300853 44.82421875 100.81640625 C44.85128576 114.92063538 42.4571805 128.78069199 37.02734375 141.859375 C36.73142334 142.59293213 36.43550293 143.32648926 36.13061523 144.08227539 C29.03492994 161.23897935 19.01852292 175.27433205 6.27734375 188.671875 C5.6946875 189.31898438 5.11203125 189.96609375 4.51171875 190.6328125 C-15.86496525 212.55318469 -49.43383366 225.43723593 -78.72265625 227.1875 C-117.33739963 228.53693996 -149.26003336 214.09519906 -177.72265625 188.671875 C-180.28883665 186.15774694 -182.51957482 183.50775642 -184.72265625 180.671875 C-185.12838867 180.16060059 -185.53412109 179.64932617 -185.95214844 179.12255859 C-192.82442632 170.40728322 -198.26639211 161.52413645 -202.89550781 151.44238281 C-203.61921525 149.89329002 -204.39715396 148.36976979 -205.18359375 146.8515625 C-209.94788908 137.4095954 -212.06744254 126.64595886 -213.26953125 116.18359375 C-213.33552834 112.85540176 -213.33552834 112.85540176 -214.72265625 111.671875 C-217.2059171 75.86700974 -207.15668172 42.41658799 -183.671875 15.0859375 C-165.98643193 -4.93657454 -142.67246599 -19.30274399 -116.84765625 -26.203125 C-116.08751221 -26.40639404 -115.32736816 -26.60966309 -114.54418945 -26.8190918 C-75.1544903 -36.6825356 -30.73654512 -26.28261247 0 0 Z " fill="#FBF4EA" transform="translate(366.72265625,560.328125)"/>
<path d="M0 0 C0.33 0 0.66 0 1 0 C0.97381592 0.71728271 0.94763184 1.43456543 0.9206543 2.17358398 C0.24826615 23.59638096 1.03309181 45.52536367 11 65 C11.6185508 66.30212262 12.23421488 67.60561876 12.84765625 68.91015625 C16.11168684 75.75599731 19.53921206 82.17107516 24.046875 88.29296875 C26.50755781 91.70347513 28.78580163 95.21493351 31.0625 98.75 C31.52881836 99.4726001 31.99513672 100.1952002 32.47558594 100.93969727 C35.06427442 104.96150236 37.63299712 108.99546382 40.1875 113.0390625 C47.12152924 124.00701079 54.20376193 134.85749728 61.42959595 145.63427734 C66.19854754 152.74980454 70.88612202 159.89815178 75.36938477 167.19750977 C79.42516827 173.76688408 83.74023015 180.16080787 88.0378418 186.57348633 C91.46124475 191.68397376 94.83572512 196.81535814 98.109375 202.0234375 C100.24828937 205.39090185 102.42597395 208.7316825 104.60693359 212.07202148 C106.30331598 214.67341634 107.99221296 217.27953873 109.6796875 219.88671875 C111.80849072 223.17550249 113.96035114 226.44695636 116.1328125 229.70703125 C117.06830726 231.13762936 118.00323566 232.56859805 118.9375 234 C119.3806958 234.65186279 119.8238916 235.30372559 120.28051758 235.9753418 C121.46484375 237.8125 121.46484375 237.8125 123 241 C122.53125 242.9609375 122.53125 242.9609375 121 245 C120.32450781 246.15298019 119.66044758 247.31268687 119.00390625 248.4765625 C118.1920037 249.86049114 117.37807123 251.24323019 116.5625 252.625 C116.12075439 253.37426758 115.67900879 254.12353516 115.22387695 254.89550781 C107.72267376 267.57828092 99.95166111 280.09687704 92.18823242 292.62011719 C87.09007839 300.84578546 82.0193886 309.08823092 76.95141602 317.33251953 C73.26767657 323.32275048 69.57259333 329.30562945 65.86206055 335.27929688 C61.07689421 342.98426258 56.34447605 350.71679614 51.6875 358.5 C51.1922583 359.32733643 50.6970166 360.15467285 50.18676758 361.00708008 C49.70747803 361.80782959 49.22818848 362.6085791 48.734375 363.43359375 C43.88618463 371.5325059 43.88618463 371.5325059 41.4375 375.5625 C40.83808594 376.55378906 40.23867188 377.54507812 39.62109375 378.56640625 C38.21999247 380.66974624 36.86749687 382.31414416 35 384 C34.85304688 382.83726562 34.70609375 381.67453125 34.5546875 380.4765625 C29.90650046 346.26244407 12.71253058 314.904122 -14.85400391 293.75024414 C-20.05410326 289.86417929 -25.43439548 286.34098062 -31 283 C-31.9075 282.41605469 -32.815 281.83210938 -33.75 281.23046875 C-45.27952591 274.04018017 -57.82281686 270.37084533 -70.9375 267.1875 C-71.78884521 266.98044434 -72.64019043 266.77338867 -73.51733398 266.56005859 C-106.85447299 258.86213349 -147.67725117 263.77379414 -177 282 C-174.27979533 276.31527599 -170.8028146 271.04555847 -167.5 265.6875 C-167.13862946 265.10009033 -166.77725891 264.51268066 -166.40493774 263.9074707 C-161.91013527 256.60654698 -157.34037066 249.37353084 -152.51977539 242.28222656 C-148.83834807 236.83870222 -145.43605483 231.23660797 -142.03173828 225.61694336 C-138.92172232 220.48865548 -135.73788898 215.42152772 -132.47753906 210.38720703 C-127.76950625 203.11397956 -123.16376512 195.77621561 -118.54394531 188.44677734 C-117.03979563 186.06306639 -115.53226126 183.68153584 -114.0234375 181.30078125 C-108.3186337 172.29517948 -102.66822337 163.25816595 -97.06665039 154.18798828 C-92.27143796 146.42674559 -87.43670568 138.69059772 -82.59545898 130.95800781 C-79.0053481 125.22012966 -75.43403299 119.47128758 -71.88208008 113.7097168 C-66.99249583 105.77886235 -62.03475687 97.90260825 -56.94995117 90.09545898 C-53.93902205 85.46802667 -50.9806451 80.81147128 -48.0625 76.125 C-47.65805664 75.47547363 -47.25361328 74.82594727 -46.83691406 74.15673828 C-46.42666992 73.49786621 -46.01642578 72.83899414 -45.59375 72.16015625 C-36.12986014 56.9633331 -26.48184232 41.88705249 -16.66796875 26.9140625 C-11.28808313 18.69272581 -5.96163326 10.50550119 -1.171875 1.921875 C-0.78515625 1.28765625 -0.3984375 0.6534375 0 0 Z " fill="#FBF4EA" transform="translate(387,256)"/>
<path d="M0 0 C0.33 0.99 0.66 1.98 1 3 C3.01508358 3.73323796 3.01508358 3.73323796 5 4 C1.66666667 5.66666667 -1.66666667 7.33333333 -5 9 C-3.50163895 5.88801935 -1.80066242 2.9465385 0 0 Z " fill="#DEE1C6" transform="translate(215,529)"/>
<path d="M0 0 C0.66 0.66 1.32 1.32 2 2 C-0.97 4.97 -3.94 7.94 -7 11 C-7.66 10.67 -8.32 10.34 -9 10 C-8.27683594 9.29423828 -8.27683594 9.29423828 -7.5390625 8.57421875 C-6.90742188 7.95160156 -6.27578125 7.32898438 -5.625 6.6875 C-4.68527344 5.76517578 -4.68527344 5.76517578 -3.7265625 4.82421875 C-1.81913393 2.91187472 -1.81913393 2.91187472 0 0 Z " fill="#627328" transform="translate(382,738)"/>
</svg>
