<svg xmlns="http://www.w3.org/2000/svg" width="600" height="290" style="background:#00000000">
<style>text { font-family: sans-serif; font-size: 14px; fill: #ffffff; }</style>
<text x="140" y="25" text-anchor="end"><![CDATA[Arabic]]></text>
<rect x="150" y="11" width="300" height="14" fill="#2C2F33" rx="8" ry="8" />
<rect x="150" y="11" width="276" height="14" fill="#a5e29e" rx="8" ry="8" />
<text x="460" y="25" text-anchor="start">92%</text>
<text x="140" y="55" text-anchor="end"><![CDATA[Azerbaijani]]></text>
<rect x="150" y="41" width="300" height="14" fill="#2C2F33" rx="8" ry="8" />
<rect x="150" y="41" width="300" height="14" fill="#9ee69d" rx="8" ry="8" />
<text x="460" y="55" text-anchor="start">100%</text>
<text x="140" y="85" text-anchor="end"><![CDATA[German]]></text>
<rect x="150" y="71" width="300" height="14" fill="#2C2F33" rx="8" ry="8" />
<rect x="150" y="71" width="153" height="14" fill="#cdcda3" rx="8" ry="8" />
<text x="460" y="85" text-anchor="start">51%</text>
<text x="140" y="115" text-anchor="end"><![CDATA[French]]></text>
<rect x="150" y="101" width="300" height="14" fill="#2C2F33" rx="8" ry="8" />
<rect x="150" y="101" width="132" height="14" fill="#d4caa4" rx="8" ry="8" />
<text x="460" y="115" text-anchor="start">44%</text>
<text x="140" y="145" text-anchor="end"><![CDATA[Japanese]]></text>
<rect x="150" y="131" width="300" height="14" fill="#2C2F33" rx="8" ry="8" />
<rect x="150" y="131" width="132" height="14" fill="#d4caa4" rx="8" ry="8" />
<text x="460" y="145" text-anchor="start">44%</text>
<text x="140" y="175" text-anchor="end"><![CDATA[Portuguese, Brazilian]]></text>
<rect x="150" y="161" width="300" height="14" fill="#2C2F33" rx="8" ry="8" />
<rect x="150" y="161" width="0" height="14" fill="#ffb4ab" rx="8" ry="8" />
<text x="460" y="175" text-anchor="start">0%</text>
<text x="140" y="205" text-anchor="end"><![CDATA[Russian]]></text>
<rect x="150" y="191" width="300" height="14" fill="#2C2F33" rx="8" ry="8" />
<rect x="150" y="191" width="300" height="14" fill="#9ee69d" rx="8" ry="8" />
<text x="460" y="205" text-anchor="start">100%</text>
<text x="140" y="235" text-anchor="end"><![CDATA[Turkish]]></text>
<rect x="150" y="221" width="300" height="14" fill="#2C2F33" rx="8" ry="8" />
<rect x="150" y="221" width="300" height="14" fill="#9ee69d" rx="8" ry="8" />
<text x="460" y="235" text-anchor="start">100%</text>
<text x="140" y="265" text-anchor="end"><![CDATA[Chinese Simplified]]></text>
<rect x="150" y="251" width="300" height="14" fill="#2C2F33" rx="8" ry="8" />
<rect x="150" y="251" width="6" height="14" fill="#fdb5aa" rx="8" ry="8" />
<text x="460" y="265" text-anchor="start">2%</text>
</svg>